# MagicaVoxel @ Ephtracy
g Player_Walk
# material
mtllib Player_Walk.mtl
usemtl palette

# normals
vn -1 0 0
vn 1 0 0
vn 0 0 1
vn 0 0 -1
vn 0 -1 0
vn 0 1 0

# texcoords
vt 0.0605469 0.5
vt 0.501953 0.5

# verts
v -3.5 3 0.5
v -3.5 3 -0.5
v -3.5 4 0.5
v -3.5 4 -0.5
v -3.5 5 0.5
v -3.5 5 -0.5
v -2.5 2 0.5
v -2.5 2 -0.5
v -2.5 3 0.5
v -2.5 3 -0.5
v -2.5 5 0.5
v -2.5 5 -0.5
v -2.5 8 0.5
v -2.5 8 -0.5
v -1.5 0 0.5
v -1.5 0 -0.5
v -1.5 1 0.5
v -1.5 1 -0.5
v -1.5 2 0.5
v -1.5 2 -0.5
v -1.5 8 0.5
v -1.5 8 -0.5
v -1.5 9 0.5
v -1.5 9 -0.5
v 0.5 0 0.5
v 0.5 0 -0.5
v 0.5 1 0.5
v 0.5 1 -0.5
v 1.5 1 0.5
v 1.5 1 -0.5
v 1.5 2 0.5
v 1.5 2 -0.5
v 1.5 8 0.5
v 1.5 8 -0.5
v 1.5 9 0.5
v 1.5 9 -0.5
v 2.5 2 0.5
v 2.5 2 -0.5
v 2.5 3 0.5
v 2.5 3 -0.5
v 2.5 5 0.5
v 2.5 5 -0.5
v 2.5 6 0.5
v 2.5 6 -0.5
v 2.5 7 0.5
v 2.5 7 -0.5
v 2.5 8 0.5
v 2.5 8 -0.5
v 3.5 3 0.5
v 3.5 3 -0.5
v 3.5 4 0.5
v 3.5 4 -0.5
v 3.5 5 0.5
v 3.5 5 -0.5
v -3.5 3 0.5
v -3.5 4 0.5
v -3.5 5 0.5
v -2.5 2 0.5
v -2.5 3 0.5
v -2.5 4 0.5
v -2.5 5 0.5
v -2.5 8 0.5
v -1.5 0 0.5
v -1.5 1 0.5
v -1.5 2 0.5
v -1.5 8 0.5
v -1.5 9 0.5
v -0.5 6 0.5
v -0.5 7 0.5
v 0.5 0 0.5
v 0.5 1 0.5
v 0.5 6 0.5
v 0.5 7 0.5
v 1.5 1 0.5
v 1.5 2 0.5
v 1.5 6 0.5
v 1.5 7 0.5
v 1.5 8 0.5
v 1.5 9 0.5
v 2.5 2 0.5
v 2.5 3 0.5
v 2.5 4 0.5
v 2.5 5 0.5
v 2.5 6 0.5
v 2.5 7 0.5
v 2.5 8 0.5
v 3.5 3 0.5
v 3.5 4 0.5
v 3.5 5 0.5
v -3.5 3 -0.5
v -3.5 4 -0.5
v -3.5 5 -0.5
v -2.5 2 -0.5
v -2.5 3 -0.5
v -2.5 4 -0.5
v -2.5 5 -0.5
v -2.5 8 -0.5
v -1.5 0 -0.5
v -1.5 1 -0.5
v -1.5 2 -0.5
v -1.5 8 -0.5
v -1.5 9 -0.5
v -0.5 6 -0.5
v -0.5 7 -0.5
v 0.5 0 -0.5
v 0.5 1 -0.5
v 0.5 6 -0.5
v 0.5 7 -0.5
v 1.5 1 -0.5
v 1.5 2 -0.5
v 1.5 6 -0.5
v 1.5 7 -0.5
v 1.5 8 -0.5
v 1.5 9 -0.5
v 2.5 2 -0.5
v 2.5 3 -0.5
v 2.5 4 -0.5
v 2.5 5 -0.5
v 2.5 6 -0.5
v 2.5 7 -0.5
v 2.5 8 -0.5
v 3.5 3 -0.5
v 3.5 4 -0.5
v 3.5 5 -0.5
v -1.5 0 0.5
v 0.5 0 0.5
v -1.5 0 -0.5
v 0.5 0 -0.5
v 0.5 1 0.5
v 1.5 1 0.5
v 0.5 1 -0.5
v 1.5 1 -0.5
v -2.5 2 0.5
v -1.5 2 0.5
v 1.5 2 0.5
v 2.5 2 0.5
v -2.5 2 -0.5
v -1.5 2 -0.5
v 1.5 2 -0.5
v 2.5 2 -0.5
v -3.5 3 0.5
v -2.5 3 0.5
v 2.5 3 0.5
v 3.5 3 0.5
v -3.5 3 -0.5
v -2.5 3 -0.5
v 2.5 3 -0.5
v 3.5 3 -0.5
v -3.5 5 0.5
v -2.5 5 0.5
v 2.5 5 0.5
v 3.5 5 0.5
v -3.5 5 -0.5
v -2.5 5 -0.5
v 2.5 5 -0.5
v 3.5 5 -0.5
v -2.5 8 0.5
v -1.5 8 0.5
v 1.5 8 0.5
v 2.5 8 0.5
v -2.5 8 -0.5
v -1.5 8 -0.5
v 1.5 8 -0.5
v 2.5 8 -0.5
v -1.5 9 0.5
v 1.5 9 0.5
v -1.5 9 -0.5
v 1.5 9 -0.5

# faces
f 3/2/1 2/2/1 1/2/1
f 4/2/1 2/2/1 3/2/1
f 5/1/1 4/1/1 3/1/1
f 6/1/1 4/1/1 5/1/1
f 9/1/1 8/1/1 7/1/1
f 10/1/1 8/1/1 9/1/1
f 13/2/1 12/2/1 11/2/1
f 14/2/1 12/2/1 13/2/1
f 17/2/1 16/2/1 15/2/1
f 18/2/1 16/2/1 17/2/1
f 19/1/1 18/1/1 17/1/1
f 20/1/1 18/1/1 19/1/1
f 23/1/1 22/1/1 21/1/1
f 24/1/1 22/1/1 23/1/1
f 25/2/2 26/2/2 27/2/2
f 27/2/2 26/2/2 28/2/2
f 29/1/2 30/1/2 31/1/2
f 31/1/2 30/1/2 32/1/2
f 33/1/2 34/1/2 35/1/2
f 35/1/2 34/1/2 36/1/2
f 37/1/2 38/1/2 39/1/2
f 39/1/2 38/1/2 40/1/2
f 41/2/2 42/2/2 43/2/2
f 43/2/2 42/2/2 44/2/2
f 43/1/2 44/1/2 45/1/2
f 45/1/2 44/1/2 46/1/2
f 45/2/2 46/2/2 47/2/2
f 47/2/2 46/2/2 48/2/2
f 49/2/2 50/2/2 51/2/2
f 51/2/2 50/2/2 52/2/2
f 51/1/2 52/1/2 53/1/2
f 53/1/2 52/1/2 54/1/2
f 59/2/3 56/2/3 55/2/3
f 60/1/3 57/1/3 56/1/3
f 60/2/3 56/2/3 59/2/3
f 61/1/3 57/1/3 60/1/3
f 65/1/3 59/1/3 58/1/3
f 65/1/3 60/1/3 59/1/3
f 65/1/3 61/1/3 60/1/3
f 66/2/3 62/2/3 61/2/3
f 68/2/3 66/2/3 61/2/3
f 69/2/3 66/2/3 68/2/3
f 70/2/3 64/2/3 63/2/3
f 71/1/3 65/1/3 64/1/3
f 71/2/3 64/2/3 70/2/3
f 72/2/3 68/2/3 61/2/3
f 72/1/3 69/1/3 68/1/3
f 73/2/3 66/2/3 69/2/3
f 73/1/3 69/1/3 72/1/3
f 74/1/3 65/1/3 71/1/3
f 75/1/3 61/1/3 65/1/3
f 75/1/3 65/1/3 74/1/3
f 76/2/3 72/2/3 61/2/3
f 76/2/3 73/2/3 72/2/3
f 77/2/3 66/2/3 73/2/3
f 77/2/3 73/2/3 76/2/3
f 78/1/3 67/1/3 66/1/3
f 78/2/3 66/2/3 77/2/3
f 79/1/3 67/1/3 78/1/3
f 80/1/3 61/1/3 75/1/3
f 81/1/3 61/1/3 80/1/3
f 82/1/3 61/1/3 81/1/3
f 83/2/3 76/2/3 61/2/3
f 83/1/3 61/1/3 82/1/3
f 84/1/3 77/1/3 76/1/3
f 84/2/3 76/2/3 83/2/3
f 85/2/3 78/2/3 77/2/3
f 85/1/3 77/1/3 84/1/3
f 86/2/3 78/2/3 85/2/3
f 87/2/3 82/2/3 81/2/3
f 88/1/3 83/1/3 82/1/3
f 88/2/3 82/2/3 87/2/3
f 89/1/3 83/1/3 88/1/3
f 90/2/4 91/2/4 94/2/4
f 91/1/4 92/1/4 95/1/4
f 94/2/4 91/2/4 95/2/4
f 95/1/4 92/1/4 96/1/4
f 93/1/4 94/1/4 100/1/4
f 94/1/4 95/1/4 100/1/4
f 95/1/4 96/1/4 100/1/4
f 96/2/4 97/2/4 101/2/4
f 96/2/4 101/2/4 103/2/4
f 103/2/4 101/2/4 104/2/4
f 98/2/4 99/2/4 105/2/4
f 99/1/4 100/1/4 106/1/4
f 105/2/4 99/2/4 106/2/4
f 96/2/4 103/2/4 107/2/4
f 103/1/4 104/1/4 107/1/4
f 104/2/4 101/2/4 108/2/4
f 107/1/4 104/1/4 108/1/4
f 106/1/4 100/1/4 109/1/4
f 100/1/4 96/1/4 110/1/4
f 109/1/4 100/1/4 110/1/4
f 96/2/4 107/2/4 111/2/4
f 107/2/4 108/2/4 111/2/4
f 108/2/4 101/2/4 112/2/4
f 111/2/4 108/2/4 112/2/4
f 101/1/4 102/1/4 113/1/4
f 112/2/4 101/2/4 113/2/4
f 113/1/4 102/1/4 114/1/4
f 110/1/4 96/1/4 115/1/4
f 115/1/4 96/1/4 116/1/4
f 116/1/4 96/1/4 117/1/4
f 96/2/4 111/2/4 118/2/4
f 117/1/4 96/1/4 118/1/4
f 111/1/4 112/1/4 119/1/4
f 118/2/4 111/2/4 119/2/4
f 112/2/4 113/2/4 120/2/4
f 119/1/4 112/1/4 120/1/4
f 120/2/4 113/2/4 121/2/4
f 116/2/4 117/2/4 122/2/4
f 117/1/4 118/1/4 123/1/4
f 122/2/4 117/2/4 123/2/4
f 123/1/4 118/1/4 124/1/4
f 127/2/5 126/2/5 125/2/5
f 128/2/5 126/2/5 127/2/5
f 131/1/5 130/1/5 129/1/5
f 132/1/5 130/1/5 131/1/5
f 137/1/5 134/1/5 133/1/5
f 138/1/5 134/1/5 137/1/5
f 139/1/5 136/1/5 135/1/5
f 140/1/5 136/1/5 139/1/5
f 145/2/5 142/2/5 141/2/5
f 146/2/5 142/2/5 145/2/5
f 147/2/5 144/2/5 143/2/5
f 148/2/5 144/2/5 147/2/5
f 149/1/6 150/1/6 153/1/6
f 153/1/6 150/1/6 154/1/6
f 151/1/6 152/1/6 155/1/6
f 155/1/6 152/1/6 156/1/6
f 157/2/6 158/2/6 161/2/6
f 161/2/6 158/2/6 162/2/6
f 159/2/6 160/2/6 163/2/6
f 163/2/6 160/2/6 164/2/6
f 165/1/6 166/1/6 167/1/6
f 167/1/6 166/1/6 168/1/6
